Coordinates
version=1
nRows=9
nColumns=36
inDegrees=yes

Units are S.I. units (second, meters, Newtons, ...)
If the header above contains a line with 'inDegrees', this indicates whether rotational values are in degrees (yes) or radians (no).

endheader
time	pelvis_tilt	pelvis_list	pelvis_rotation	pelvis_tx	pelvis_ty	pelvis_tz	hip_flexion_r	hip_adduction_r	hip_rotation_r	knee_angle_r	knee_angle_r_beta	ankle_angle_r	subtalar_angle_r	mtp_angle_r	hip_flexion_l	hip_adduction_l	hip_rotation_l	knee_angle_l	knee_angle_l_beta	ankle_angle_l	subtalar_angle_l	mtp_angle_l	lumbar_extension	lumbar_bending	lumbar_rotation	arm_flex_r	arm_add_r	arm_rot_r	elbow_flex_r	pro_sup_r	arm_flex_l	arm_add_l	arm_rot_l	elbow_flex_l	pro_sup_l
      1.66000000	     -8.00081130	     -3.38636410	      6.08376992	     -0.35037498	      0.84523865	     -0.55493957	     56.95291118	      3.39997451	     -2.21048650	     76.65667486	      1.33791137	     23.96771899	    -21.97633620	     -7.50151023	     58.46359347	     -3.85969006	      4.81101126	     77.42885651	      1.35138848	     26.44422264	     -9.01493480	     -7.50151023	    -20.74665525	      2.56266168	     -2.85629486	     37.48572548	    -24.62899463	     13.42497779	    100.61659523	    112.94260084	      4.02189736	    -22.57971368	     -2.85818470	     93.24114486	     98.01198225
      1.67000000	     -8.68493263	     -3.45133124	      6.04257077	     -0.35007941	      0.84565840	     -0.55496320	     57.55957671	      3.39843476	     -2.18298357	     76.44938777	      1.33429353	     23.74330461	    -21.96488980	     -7.50140691	     59.04279990	     -4.05401485	      4.59282948	     77.20123760	      1.34741578	     27.02931773	     -7.85745364	     -7.50140691	    -20.75010446	      2.69820705	     -2.49160242	     36.95498247	    -23.57599492	     12.48235311	     99.00088247	    112.35616695	      5.24399983	    -23.12757851	     -2.82222260	     93.25030646	     99.23935583
      1.68000000	     -9.31802314	     -3.50168029	      5.97002115	     -0.34979923	      0.84618571	     -0.55516019	     58.06881495	      3.41211372	     -2.08998980	     76.17853456	      1.32956625	     23.65769418	    -21.79299184	     -7.50139850	     59.51781808	     -4.16351540	      4.41572531	     76.87286005	      1.34168451	     26.96230197	     -7.76579022	     -7.50139850	    -20.87910362	      2.80983095	     -2.15451600	     36.49315790	    -22.74968661	     11.75217516	     97.65332997	    112.22168338	      6.22407645	    -23.40812029	     -3.25930424	     93.66427550	     99.35157283
      1.69000000	    -10.11182893	     -3.45766443	      5.90819211	     -0.34947373	      0.84606836	     -0.55539041	     58.80759111	      3.34055207	     -1.91445437	     76.05755004	      1.32745467	     23.61622452	    -21.66241867	     -7.50138408	     60.19764354	     -4.15330353	      4.18780772	     76.64982469	      1.33779181	     26.92024541	     -7.61434373	     -7.50138408	    -20.77527738	      2.80554171	     -1.98462963	     35.86060183	    -21.51864687	     10.48811588	     96.41605234	    112.12295382	      6.96219540	    -23.74728175	     -3.80338081	     93.88083520	     99.49909023
      1.70000000	    -10.83024535	     -3.42541027	      5.91208000	     -0.34915713	      0.84584029	     -0.55602427	     59.45474571	      3.20203420	     -1.78235255	     75.92790769	      1.32519198	     23.60760458	    -21.57422177	     -7.50137492	     60.82919093	     -4.06041476	      4.04793097	     76.45453237	      1.33438332	     26.87870250	     -7.47044071	     -7.50137492	    -20.77117614	      2.85152885	     -1.80602897	     35.24195074	    -20.67900948	      9.44890717	     95.33197166	    112.06738076	      7.65884334	    -23.96639907	     -4.24312853	     94.22455549	     99.58472158
      1.71000000	    -11.66956765	     -3.33841081	      5.90263097	     -0.34888158	      0.84498107	     -0.55667203	     60.33170164	      2.94151367	     -1.71231304	     75.96244403	      1.32579476	     23.60852126	    -21.42251632	     -7.50136120	     61.64612024	     -3.91772330	      3.86589344	     76.39062746	      1.33326797	     26.84391480	     -7.29393347	     -7.50136120	    -20.62726666	      2.83841059	     -1.71265339	     34.49199735	    -19.60109738	      8.06307337	     94.51847877	    112.10244990	      8.17500549	    -24.27452275	     -4.78002699	     94.38039355	     99.64337262
      1.72000000	    -12.40187455	     -3.30819626	      5.94703820	     -0.34864476	      0.84398598	     -0.55764449	     61.09584530	      2.62822813	     -1.76580132	     76.00920664	      1.32661092	     23.67051308	    -21.24887869	     -7.50134997	     62.40040850	     -3.71326222	      3.80349317	     76.37603720	      1.33301332	     26.85193154	     -7.20685430	     -7.50134997	    -20.60253499	      2.92160449	     -1.59220496	     33.79539011	    -18.77113399	      6.83150714	     93.70334766	    112.14099062	      8.65086660	    -24.46083174	     -5.24214991	     94.62262843	     99.66867123
      1.73000000	    -13.09504448	     -3.29580569	      6.05375236	     -0.34848018	      0.84269310	     -0.55887578	     61.83998473	      2.24165580	     -1.90318237	     76.11141560	      1.32839480	     23.81402027	    -21.08370010	     -7.50134017	     63.15066086	     -3.41591653	      3.80355477	     76.41832039	      1.33375130	     26.93200410	     -7.23360563	     -7.50134017	    -20.62480944	      3.06959604	     -1.59215081	     33.15169771	    -17.90935978	      5.60498290	     92.96168466	    112.16905395	      8.99623380	    -24.69095938	     -5.63338325	     94.81860332	     99.65614938
      1.74000000	    -13.78139366	     -3.29719620	      6.15629475	     -0.34834121	      0.84103194	     -0.56017963	     62.61277264	      1.82574883	     -2.10983090	     76.26989878	      1.33116085	     24.01889535	    -20.84945447	     -7.50133009	     63.90994754	     -3.11228948	      3.80484930	     76.49056408	      1.33501219	     27.05423546	     -7.35202279	     -7.50133009	    -20.66306282	      3.24810362	     -1.62790728	     32.51832707	    -17.02804141	      4.37717465	     92.33549467	    112.20400758	      9.19116628	    -24.93525067	     -5.99217236	     94.96600419	     99.60197139
